<?xml version="1.0" encoding="UTF-8" standalone="no"?>
<!-- Created with Inkscape (http://www.inkscape.org/) -->

<svg
   width="127.99999"
   height="127.99999"
   viewBox="0 0 33.866664 33.866664"
   version="1.1"
   id="svg1"
   xmlns="http://www.w3.org/2000/svg"
   xmlns:svg="http://www.w3.org/2000/svg">
  <defs
     id="defs1" />
  <g
     id="layer1">
    <path
       id="rect1"
       style="fill:#8ecdef;fill-opacity:1;fill-rule:evenodd;stroke-width:13.2292;stroke-linejoin:bevel;stroke-miterlimit:5"
       d="m 5.7241984,2.8204997 c -1.6087641,0 -2.9036987,1.2949346 -2.9036987,2.9036987 V 28.142468 c 0,1.608764 1.2949346,2.903699 2.9036987,2.903699 H 19.829797 l -3.911906,-6.393925 2.112533,-8.239807 c 0.331669,-1.293991 1.633061,-2.088892 2.935738,-1.793172 l 8.278048,1.879472 1.801957,2.945039 V 5.7241984 c 0,-1.6087641 -1.294935,-2.9036987 -2.903699,-2.9036987 z M 22.762435,18.14928 c -0.54337,-0.01467 -1.080029,0.140935 -1.53324,0.448034 -0.624292,0.423015 -1.035028,1.095733 -1.126029,1.844332 -0.173156,1.425165 0.838542,2.722047 2.262911,2.901632 l 0.04496,0.0057 c 1.427316,0.154612 2.711153,-0.873511 2.872176,-2.300118 0.160908,-1.426658 -0.861788,-2.71525 -2.287715,-2.882511 -0.07768,-0.0091 -0.155437,-0.01496 -0.233061,-0.01705 z" />
  </g>
</svg>
