<?xml version="1.0" encoding="UTF-8" standalone="no"?>
<svg
   width="24"
   height="24"
   viewBox="0 0 24 24"
   fill="none"
   stroke="currentColor"
   stroke-width="2"
   stroke-linecap="round"
   stroke-linejoin="round"
   class="feather feather-info"
   version="1.1"
   id="svg2"
   sodipodi:docname="info.svg"
   inkscape:version="1.3.2 (091e20ef0f, 2023-11-25, custom)"
   xmlns:inkscape="http://www.inkscape.org/namespaces/inkscape"
   xmlns:sodipodi="http://sodipodi.sourceforge.net/DTD/sodipodi-0.dtd"
   xmlns="http://www.w3.org/2000/svg"
   xmlns:svg="http://www.w3.org/2000/svg">
  <defs
     id="defs2" />
  <sodipodi:namedview
     id="namedview2"
     pagecolor="#ffffff"
     bordercolor="#000000"
     borderopacity="0.25"
     inkscape:showpageshadow="2"
     inkscape:pageopacity="0.0"
     inkscape:pagecheckerboard="0"
     inkscape:deskcolor="#d1d1d1"
     inkscape:zoom="32.875"
     inkscape:cx="12.593156"
     inkscape:cy="13.277567"
     inkscape:current-layer="svg2" />
  <path
     id="circle1"
     style="stroke:#dee2e6"
     d="M 22,12 A 10,10 0 0 1 12,22 10,10 0 0 1 2,12 10,10 0 0 1 12,2 10,10 0 0 1 22,12 Z" />
  <path
     id="line1"
     style="stroke:#dee2e6"
     d="M 12,16 V 12" />
  <path
     style="color:#000000;fill:#dee2e6;stroke-width:0.979909;-inkscape-stroke:none;stroke:#dee2e6;stroke-opacity:1"
     d="M 12.002499,7.510045 A 0.48995502,0.48995502 0 0 0 11.512544,8 0.48995502,0.48995502 0 0 0 12.002499,8.489955 h 0.0047 A 0.48995502,0.48995502 0 0 0 12.497256,8 0.48995502,0.48995502 0 0 0 12.007301,7.510045 Z"
     id="line2" />
</svg>
